# xmcd
#
# Track frame offsets:
#	150
#	21242
#	38227
#	77280
#	98362
#	117562
#	140937
#	155580
#	171250
#	187420
#
# Disc length: 2661 seconds
#
# Revision: 2
# Processed by: cddbd v1.5.1PL2 Copyright (c) Steve Scherf et al.
# Submitted via: audiograbber 1.83.01
#
DISCID=860a630a
DTITLE=Charlie Musselwhite - Ace of Harps
DYEAR=1990
DGENRE=Blues
TTITLE0=The Blues Overtook Me
TTITLE1=Mean Ole Frisco
TTITLE2=She May Be Your Woman
TTITLE3=Kiddeo
TTITLE4=River Hip Mama
TTITLE5=Yesterdays
TTITLE6=Leaving Your Town
TTITLE7=Hangin' On
TTITLE8=Hello, Pretty Baby
TTITLE9=My Road Lies In Darkness
EXTD=
EXTT0=
EXTT1=
EXTT2=
EXTT3=
EXTT4=
EXTT5=
EXTT6=
EXTT7=
EXTT8=
EXTT9=
PLAYORDER=
